<svg id="Layer_1" xmlns="http://www.w3.org/2000/svg" viewBox="0 0 354 64"><style>.st0{enable-background:new}.st1{fill:#231f20}.st2{fill:#788aa3}</style><title>loader</title><path class="st0 st1" d="M3.7 3.2h27.6c3.9 0 7.6.7 10.9 2.1 3.3 1.4 6.2 3.3 8.6 5.8 5.1 5.4 7.6 12.3 7.6 20.9 0 8.6-2.5 15.6-7.6 20.9-5 5.3-11.5 7.9-19.6 7.9H3.7v-1.5l6.6-1.1V5.8l-6.6-1V3.2zM31.3 5h-13v54.1h13c5.3 0 9.7-1.9 13-5.6 3.3-3.7 5-9 5-15.9V26.5c0-6.9-1.7-12.2-5-15.9C41 6.9 36.7 5 31.3 5zm57.3 48.7c-1.2 2.4-3 4.4-5.4 5.8-2.4 1.4-5.1 2.1-8.1 2.1s-5.4-.8-7.3-2.4c-1.9-1.6-2.9-3.8-2.9-6.6s.6-5 1.8-6.6c1.2-1.6 2.8-2.9 4.8-3.9 3.5-1.7 8.3-2.6 14.5-2.6h2.7v-6.8c0-5.4-2.4-8.1-7.3-8.1-2.2 0-3.9.5-5.3 1.5S74 28.3 74 29.6c0 1.3.7 2.2 2 2.6 0 1.2-.5 2.3-1.4 3.2-.9.9-2 1.4-3.2 1.4-1.2 0-2.3-.4-3.2-1.3-.9-.9-1.3-2-1.3-3.3 0-1.3.4-2.5 1.2-3.7.8-1.1 1.9-2.1 3.2-2.9 2.7-1.7 6-2.5 10.1-2.5 9.7 0 14.5 3.7 14.5 11.1v22c0 2.2.9 3.2 2.7 3.2 1.8 0 2.7-1 2.7-3.1h1.5c0 1.7-.6 3-1.7 4s-2.7 1.4-4.8 1.4c-2.1 0-3.8-.6-5.3-1.9-1.6-1.5-2.4-3.5-2.4-6.1zm0-5.1v-7.4h-2.7c-3.7 0-6.9.9-9.4 2.7-2.5 1.8-3.8 4.5-3.8 8.1 0 1.9.5 3.4 1.6 4.5s2.6 1.7 4.7 1.7 4.1-.9 6.1-2.6c2-1.8 3.2-4.1 3.5-7zm41.6 12.2v-1.4l4.3-.7V33.3c0-5.2-2.1-7.8-6.2-7.8-2.2 0-4.3.8-6.4 2.4-2 1.6-3.9 3.6-5.4 5.9v24.8l4.3.7v1.4h-16.6v-1.4l5-.7v-33l-5-.7v-1.4h12.2v7.8c3.9-5.6 8.6-8.4 14-8.4 3.5 0 6.2.9 8.2 2.6 2 1.7 3 4.3 3 7.7v25.5l5 .7v1.4h-16.4z"/><path class="st0 st2" d="M197 40c-4.8 0-7.2 1.3-7.2 4 0 1.3.8 2 2.3 2 1.5 0 2.6-.6 3.2-1.9 2.4.6 3.5 1.9 3.5 4 0 1.2-.4 2.2-1.3 3-.8.9-2 1.3-3.6 1.3s-2.9-.8-4.1-2.4c-1.2-1.6-1.8-3.7-1.8-6.3s1-4.9 3.1-6.9 4.9-3 8.4-3c2.2 0 4.8.2 7.6.7s5.2.7 7.1.7 3.5-.3 4.8-1c1.4-.7 2.1-1.7 2.1-2.9 0-1.4-.8-2.1-2.3-2.1s-2.6.7-3.2 2c-2.4-.5-3.5-1.8-3.5-4 0-1.2.4-2.2 1.3-3 .8-.9 2-1.3 3.6-1.3s2.9.7 4 2.1c1.1 1.4 1.7 3.2 1.7 5.4 0 7.5-3.6 11.3-10.8 11.3-2.1 0-3.8-.1-5.1-.3.4 1.9.6 3.7.6 5.3 0 4.9-1.4 8.8-4.2 11.5-2.8 2.7-6.6 4.1-11.3 4.1-7.8 0-13.6-1.5-17.4-4.6-3.8-3.1-5.7-7.2-5.7-12.3 0-5.1 1.8-9.1 5.5-11.8 3.7-2.8 8.5-4.3 14.4-4.6v-.2c-6-.8-10.4-2.2-13.2-4.3-2.9-2.1-4.3-5.3-4.3-9.6s1.6-7.5 4.9-9.7c3.2-2.2 7.8-3.3 13.6-3.3 3.9 0 7.1.9 9.8 2.8 2.6 1.9 3.9 4.4 3.9 7.5 0 1.6-.4 2.8-1.3 3.7-.9.9-1.9 1.3-3.1 1.3-1.2 0-2.2-.4-3-1.1-.8-.7-1.2-1.8-1.2-3.2 2-.9 3-2.4 3-4.5 0-1.5-.6-2.7-1.9-3.6-1.3-.9-3.1-1.3-5.3-1.3-3.3 0-5.9 1-7.8 2.9-1.9 1.9-2.9 4.5-2.9 7.7 0 4.6 1.4 8 4.1 10.2 2.7 2.2 6.7 3.4 11.9 3.7v1.6c-11.4.7-17.1 5.9-17.1 15.6 0 4.8 1.3 8.6 3.9 11.3 2.6 2.8 5.9 4.1 9.8 4.1 3.9 0 7.1-1.2 9.6-3.6s3.7-5.8 3.7-10.3c0-1.8-.3-3.7-.8-5.7-.7-.1-1.6-.2-2.7-.4-2.2-.4-4-.6-5.3-.6z"/><path class="st0 st1" d="M266.5 38.5h-8.1v19.7l6.6 1.1v1.5h-21.2v-1.5l6.6-1.1V5.8l-6.6-1V3.2h22.6c14 0 21 5.9 21 17.6.2 11.8-6.9 17.7-20.9 17.7zm-1-33.5h-7.1v31.8h7.1c8.9 0 13.3-4.8 13.3-14.5v-2.9c0-9.6-4.4-14.4-13.3-14.4zm26.3 20v-1.4H304v35.1l5 .7v1.4h-17.3v-1.4l5-.7v-33l-4.9-.7zm2.7-14.7c0-1.3.5-2.5 1.4-3.4.9-.9 2.1-1.4 3.4-1.4s2.5.5 3.4 1.4c.9.9 1.4 2 1.4 3.4 0 1.3-.5 2.5-1.4 3.4-.9.9-2 1.4-3.3 1.4s-2.5-.5-3.4-1.4c-1-.9-1.5-2-1.5-3.4zm17.3-5.7V3.2h12.6v55.4l5 .7v1.4h-17.6v-1.4l5.4-.7V5.4l-5.4-.8zm21 20.4v-1.4H345v35.1l5 .7v1.4h-17.3v-1.4l5-.7v-33l-4.9-.7zm2.8-14.7c0-1.3.5-2.5 1.4-3.4.9-.9 2.1-1.4 3.4-1.4 1.3 0 2.5.5 3.4 1.4.9.9 1.4 2 1.4 3.4 0 1.3-.5 2.5-1.4 3.4-.9.9-2 1.4-3.3 1.4-1.3 0-2.5-.5-3.4-1.4-1-.9-1.5-2-1.5-3.4z"/></svg>