<?xml version="1.0" encoding="utf-8"?>
<!-- Generator: Adobe Illustrator 20.0.0, SVG Export Plug-In . SVG Version: 6.00 Build 0)  -->
<svg version="1.1" id="Layer_1" xmlns="http://www.w3.org/2000/svg" xmlns:xlink="http://www.w3.org/1999/xlink" x="0px" y="0px"
	 viewBox="0 0 354 64" style="enable-background:new 0 0 354 64;" xml:space="preserve">
<style type="text/css">
	.st0{enable-background:new    ;}
	.st1{fill:#231F20;}
	.st2{fill:#788AA3;}
</style>
<title>loader</title>
<g class="st0">
	<path class="st1" d="M3.7,3.2h27.6c3.9,0,7.6,0.7,10.9,2.1c3.3,1.4,6.2,3.3,8.6,5.8c5.1,5.4,7.6,12.3,7.6,20.9
		c0,8.6-2.5,15.6-7.6,20.9c-5,5.3-11.5,7.9-19.6,7.9H3.7v-1.5l6.6-1.1V5.8l-6.6-1V3.2z M31.3,5h-13v54.1h13c5.3,0,9.7-1.9,13-5.6
		c3.3-3.7,5-9,5-15.9V26.5c0-6.9-1.7-12.2-5-15.9C41,6.9,36.7,5,31.3,5z"/>
	<path class="st1" d="M88.6,53.7c-1.2,2.4-3,4.4-5.4,5.8c-2.4,1.4-5.1,2.1-8.1,2.1c-3,0-5.4-0.8-7.3-2.4c-1.9-1.6-2.9-3.8-2.9-6.6
		c0-2.8,0.6-5,1.8-6.6c1.2-1.6,2.8-2.9,4.8-3.9c3.5-1.7,8.3-2.6,14.5-2.6h2.7v-6.8c0-5.4-2.4-8.1-7.3-8.1c-2.2,0-3.9,0.5-5.3,1.5
		c-1.4,1-2.1,2.2-2.1,3.5c0,1.3,0.7,2.2,2,2.6c0,1.2-0.5,2.3-1.4,3.2c-0.9,0.9-2,1.4-3.2,1.4c-1.2,0-2.3-0.4-3.2-1.3
		c-0.9-0.9-1.3-2-1.3-3.3c0-1.3,0.4-2.5,1.2-3.7c0.8-1.1,1.9-2.1,3.2-2.9c2.7-1.7,6-2.5,10.1-2.5c9.7,0,14.5,3.7,14.5,11.1v22
		c0,2.2,0.9,3.2,2.7,3.2c1.8,0,2.7-1,2.7-3.1h1.5c0,1.7-0.6,3-1.7,4c-1.1,1-2.7,1.4-4.8,1.4c-2.1,0-3.8-0.6-5.3-1.9
		C89.4,58.3,88.6,56.3,88.6,53.7z M88.6,48.6v-7.4h-2.7c-3.7,0-6.9,0.9-9.4,2.7c-2.5,1.8-3.8,4.5-3.8,8.1c0,1.9,0.5,3.4,1.6,4.5
		c1.1,1.1,2.6,1.7,4.7,1.7s4.1-0.9,6.1-2.6C87.1,53.8,88.3,51.5,88.6,48.6z"/>
	<path class="st1" d="M130.2,60.8v-1.4l4.3-0.7V33.3c0-5.2-2.1-7.8-6.2-7.8c-2.2,0-4.3,0.8-6.4,2.4c-2,1.6-3.9,3.6-5.4,5.9v24.8
		l4.3,0.7v1.4h-16.6v-1.4l5-0.7v-33l-5-0.7v-1.4h12.2v7.8c3.9-5.6,8.6-8.4,14-8.4c3.5,0,6.2,0.9,8.2,2.6c2,1.7,3,4.3,3,7.7v25.5
		l5,0.7v1.4H130.2z"/>
</g>
<g class="st0">
	<path class="st2" d="M197,40c-4.8,0-7.2,1.3-7.2,4c0,1.3,0.8,2,2.3,2c1.5,0,2.6-0.6,3.2-1.9c2.4,0.6,3.5,1.9,3.5,4
		c0,1.2-0.4,2.2-1.3,3c-0.8,0.9-2,1.3-3.6,1.3s-2.9-0.8-4.1-2.4c-1.2-1.6-1.8-3.7-1.8-6.3s1-4.9,3.1-6.9c2.1-2,4.9-3,8.4-3
		c2.2,0,4.8,0.2,7.6,0.7s5.2,0.7,7.1,0.7s3.5-0.3,4.8-1c1.4-0.7,2.1-1.7,2.1-2.9c0-1.4-0.8-2.1-2.3-2.1s-2.6,0.7-3.2,2
		c-2.4-0.5-3.5-1.8-3.5-4c0-1.2,0.4-2.2,1.3-3c0.8-0.9,2-1.3,3.6-1.3s2.9,0.7,4,2.1c1.1,1.4,1.7,3.2,1.7,5.4
		c0,7.5-3.6,11.3-10.8,11.3c-2.1,0-3.8-0.1-5.1-0.3c0.4,1.9,0.6,3.7,0.6,5.3c0,4.9-1.4,8.8-4.2,11.5c-2.8,2.7-6.6,4.1-11.3,4.1
		c-7.8,0-13.6-1.5-17.4-4.6c-3.8-3.1-5.7-7.2-5.7-12.3c0-5.1,1.8-9.1,5.5-11.8c3.7-2.8,8.5-4.3,14.4-4.6v-0.2
		c-6-0.8-10.4-2.2-13.2-4.3c-2.9-2.1-4.3-5.3-4.3-9.6c0-4.3,1.6-7.5,4.9-9.7c3.2-2.2,7.8-3.3,13.6-3.3c3.9,0,7.1,0.9,9.8,2.8
		c2.6,1.9,3.9,4.4,3.9,7.5c0,1.6-0.4,2.8-1.3,3.7c-0.9,0.9-1.9,1.3-3.1,1.3c-1.2,0-2.2-0.4-3-1.1c-0.8-0.7-1.2-1.8-1.2-3.2
		c2-0.9,3-2.4,3-4.5c0-1.5-0.6-2.7-1.9-3.6c-1.3-0.9-3.1-1.3-5.3-1.3c-3.3,0-5.9,1-7.8,2.9c-1.9,1.9-2.9,4.5-2.9,7.7
		c0,4.6,1.4,8,4.1,10.2c2.7,2.2,6.7,3.4,11.9,3.7v1.6c-11.4,0.7-17.1,5.9-17.1,15.6c0,4.8,1.3,8.6,3.9,11.3c2.6,2.8,5.9,4.1,9.8,4.1
		c3.9,0,7.1-1.2,9.6-3.6s3.7-5.8,3.7-10.3c0-1.8-0.3-3.7-0.8-5.7c-0.7-0.1-1.6-0.2-2.7-0.4C200.1,40.2,198.3,40,197,40z"/>
</g>
<g class="st0">
	<path class="st1" d="M266.5,38.5h-8.1v19.7l6.6,1.1v1.5h-21.2v-1.5l6.6-1.1V5.8l-6.6-1V3.2h22.6c14,0,21,5.9,21,17.6
		C287.6,32.6,280.5,38.5,266.5,38.5z M265.5,5h-7.1v31.8h7.1c8.9,0,13.3-4.8,13.3-14.5v-2.9C278.8,9.8,274.4,5,265.5,5z"/>
	<path class="st1" d="M291.8,25v-1.4H304v35.1l5,0.7v1.4h-17.3v-1.4l5-0.7V25.7L291.8,25z M294.5,10.3c0-1.3,0.5-2.5,1.4-3.4
		c0.9-0.9,2.1-1.4,3.4-1.4s2.5,0.5,3.4,1.4c0.9,0.9,1.4,2,1.4,3.4c0,1.3-0.5,2.5-1.4,3.4c-0.9,0.9-2,1.4-3.3,1.4s-2.5-0.5-3.4-1.4
		C295,12.8,294.5,11.7,294.5,10.3z"/>
	<path class="st1" d="M311.8,4.6V3.2h12.6v55.4l5,0.7v1.4h-17.6v-1.4l5.4-0.7V5.4L311.8,4.6z"/>
	<path class="st1" d="M332.8,25v-1.4h12.2v35.1l5,0.7v1.4h-17.3v-1.4l5-0.7V25.7L332.8,25z M335.6,10.3c0-1.3,0.5-2.5,1.4-3.4
		c0.9-0.9,2.1-1.4,3.4-1.4c1.3,0,2.5,0.5,3.4,1.4c0.9,0.9,1.4,2,1.4,3.4c0,1.3-0.5,2.5-1.4,3.4c-0.9,0.9-2,1.4-3.3,1.4
		c-1.3,0-2.5-0.5-3.4-1.4C336.1,12.8,335.6,11.7,335.6,10.3z"/>
</g>
</svg>
